<svg viewBox="0 0 1024 1024" xmlns="http://www.w3.org/2000/svg">
  <defs>
    <linearGradient id="glass" x1="0" y1="0" x2="0" y2="1">
      <stop offset="0%" stop-color="#ffffff" stop-opacity="0.35"/>
      <stop offset="100%" stop-color="#ffffff" stop-opacity="0"/>
    </linearGradient>
  </defs>
  <rect width="1024" height="1024" fill="#F4F1E8"/>
    <circle cx="870.4" cy="122.88" r="286.72" fill="#E7DDBF" opacity="0.5"/>
    <circle cx="81.92" cy="942.08" r="225.28" fill="#DCE7D2" opacity="0.55"/>
  
    
    <g transform="translate(412.0,593.92) rotate(-16) scale(0.58)">
      <path d="M0,0 C -40,-70 -20,-150 10,-190 C 40,-150 55,-70 20,0 Z" fill="#3E6B3E" opacity="0.9"/>
      <path d="M0,0 C 10,-60 30,-120 55,-150 C 65,-100 55,-40 20,0 Z" fill="#6E9A56" opacity="0.85"/>
      <path d="M10,-190 C 10,-140 12,-70 10,0" stroke="#6E9A56" stroke-width="2.5" fill="none" opacity="0.6"/>
    </g>
    
    <g transform="translate(607.0,512.0) rotate(20) scale(0.55)">
      <path d="M0,0 C -40,-70 -20,-150 10,-190 C 40,-150 55,-70 20,0 Z" fill="#3E6B3E" opacity="0.9"/>
      <path d="M0,0 C 10,-60 30,-120 55,-150 C 65,-100 55,-40 20,0 Z" fill="#6E9A56" opacity="0.85"/>
      <path d="M10,-190 C 10,-140 12,-70 10,0" stroke="#6E9A56" stroke-width="2.5" fill="none" opacity="0.6"/>
    </g>
    <g transform="translate(437.0,245.76)">
      <rect x="0" y="80" width="150" height="220" rx="22" fill="#EDE6D3"/>
      <rect x="0" y="80" width="150" height="220" rx="22" fill="url(#glass)"/>
      <rect x="30" y="20" width="90" height="70" rx="12" fill="#3E5C3A"/>
      <rect x="30" y="20" width="90" height="10" fill="#00000022"/>
      <rect x="16" y="130" width="118" height="140" rx="8" fill="#FBF8F0" opacity="0.93"/>
      <text x="75" y="190" text-anchor="middle" font-family="Georgia, serif" font-size="14" fill="#3c3b2f">Ashwagandha</text>
      <text x="75" y="212" text-anchor="middle" font-family="Georgia, serif" font-size="12" fill="#6b6a58">Capsules</text>
      <rect x="50" y="228" width="50" height="3" fill="#8B5E22"/>
    </g>
    
</svg>